<?xml version="1.0" encoding="UTF-8"?>
<!DOCTYPE svg PUBLIC "-//W3C//DTD SVG 1.1//EN" "http://www.w3.org/Graphics/SVG/1.1/DTD/svg11.dtd">
<svg xmlns="http://www.w3.org/2000/svg" version="1.1" width="1024px" height="1024px" style="shape-rendering:geometricPrecision; text-rendering:geometricPrecision; image-rendering:optimizeQuality; fill-rule:evenodd; clip-rule:evenodd" xmlns:xlink="http://www.w3.org/1999/xlink">
<g><path style="opacity:0.018" fill="#43443f" d="M -0.5,-0.5 C 0.166667,-0.5 0.833333,-0.5 1.5,-0.5C 1.16667,0.5 0.5,1.16667 -0.5,1.5C -0.5,0.833333 -0.5,0.166667 -0.5,-0.5 Z"/></g>
<g><path style="opacity:0.02" fill="#43443f" d="M 16.5,-0.5 C 18.1667,-0.5 19.8333,-0.5 21.5,-0.5C 14.5,7.16667 7.16667,14.5 -0.5,21.5C -0.5,19.8333 -0.5,18.1667 -0.5,16.5C 5.5,11.1667 11.1667,5.5 16.5,-0.5 Z"/></g>
<g><path style="opacity:0.02" fill="#43443f" d="M 36.5,-0.5 C 38.1667,-0.5 39.8333,-0.5 41.5,-0.5C 27.8333,13.8333 13.8333,27.8333 -0.5,41.5C -0.5,39.8333 -0.5,38.1667 -0.5,36.5C 12.1667,24.5 24.5,12.1667 36.5,-0.5 Z"/></g>
<g><path style="opacity:0.02" fill="#43443f" d="M 56.5,-0.5 C 58.1667,-0.5 59.8333,-0.5 61.5,-0.5C 41.1667,20.5 20.5,41.1667 -0.5,61.5C -0.5,59.8333 -0.5,58.1667 -0.5,56.5C 18.8333,37.8333 37.8333,18.8333 56.5,-0.5 Z"/></g>
<g><path style="opacity:0.02" fill="#43443f" d="M 76.5,-0.5 C 78.1667,-0.5 79.8333,-0.5 81.5,-0.5C 54.5,27.1667 27.1667,54.5 -0.5,81.5C -0.5,79.8333 -0.5,78.1667 -0.5,76.5C 25.5,51.1667 51.1667,25.5 76.5,-0.5 Z"/></g>
<g><path style="opacity:0.02" fill="#43443f" d="M 96.5,-0.5 C 98.1667,-0.5 99.8333,-0.5 101.5,-0.5C 67.8333,33.8333 33.8333,67.8333 -0.5,101.5C -0.5,99.8333 -0.5,98.1667 -0.5,96.5C 32.1667,64.5 64.5,32.1667 96.5,-0.5 Z"/></g>
<g><path style="opacity:0.02" fill="#43443f" d="M 116.5,-0.5 C 118.167,-0.5 119.833,-0.5 121.5,-0.5C 81.1667,40.5 40.5,81.1667 -0.5,121.5C -0.5,119.833 -0.5,118.167 -0.5,116.5C 38.8333,77.8333 77.8333,38.8333 116.5,-0.5 Z"/></g>
<g><path style="opacity:0.02" fill="#43443f" d="M 136.5,-0.5 C 138.167,-0.5 139.833,-0.5 141.5,-0.5C 94.5,47.1667 47.1667,94.5 -0.5,141.5C -0.5,139.833 -0.5,138.167 -0.5,136.5C 45.5,91.1667 91.1667,45.5 136.5,-0.5 Z"/></g>
<g><path style="opacity:0.02" fill="#43443f" d="M 156.5,-0.5 C 158.167,-0.5 159.833,-0.5 161.5,-0.5C 107.833,53.8333 53.8333,107.833 -0.5,161.5C -0.5,159.833 -0.5,158.167 -0.5,156.5C 52.1667,104.5 104.5,52.1667 156.5,-0.5 Z"/></g>
<g><path style="opacity:0.02" fill="#43443f" d="M 176.5,-0.5 C 178.167,-0.5 179.833,-0.5 181.5,-0.5C 121.167,60.5 60.5,121.167 -0.5,181.5C -0.5,179.833 -0.5,178.167 -0.5,176.5C 58.8333,117.833 117.833,58.8333 176.5,-0.5 Z"/></g>
<g><path style="opacity:0.02" fill="#43443f" d="M 196.5,-0.5 C 198.167,-0.5 199.833,-0.5 201.5,-0.5C 134.5,67.1667 67.1667,134.5 -0.5,201.5C -0.5,199.833 -0.5,198.167 -0.5,196.5C 65.5,131.167 131.167,65.5 196.5,-0.5 Z"/></g>
<g><path style="opacity:0.02" fill="#43443f" d="M 216.5,-0.5 C 218.167,-0.5 219.833,-0.5 221.5,-0.5C 147.833,73.8333 73.8333,147.833 -0.5,221.5C -0.5,219.833 -0.5,218.167 -0.5,216.5C 72.1667,144.5 144.5,72.1667 216.5,-0.5 Z"/></g>
<g><path style="opacity:0.02" fill="#43443f" d="M 236.5,-0.5 C 238.167,-0.5 239.833,-0.5 241.5,-0.5C 161.167,80.5 80.5,161.167 -0.5,241.5C -0.5,239.833 -0.5,238.167 -0.5,236.5C 78.8333,157.833 157.833,78.8333 236.5,-0.5 Z"/></g>
<g><path style="opacity:0.02" fill="#43443f" d="M 256.5,-0.5 C 258.167,-0.5 259.833,-0.5 261.5,-0.5C 174.5,87.1667 87.1667,174.5 -0.5,261.5C -0.5,259.833 -0.5,258.167 -0.5,256.5C 85.5,171.167 171.167,85.5 256.5,-0.5 Z"/></g>
<g><path style="opacity:0.02" fill="#43443f" d="M 276.5,-0.5 C 278.167,-0.5 279.833,-0.5 281.5,-0.5C 187.833,93.8333 93.8333,187.833 -0.5,281.5C -0.5,279.833 -0.5,278.167 -0.5,276.5C 92.1667,184.5 184.5,92.1667 276.5,-0.5 Z"/></g>
<g><path style="opacity:0.02" fill="#44443f" d="M 316.5,-0.5 C 318.167,-0.5 319.833,-0.5 321.5,-0.5C 299.5,21.8333 277.5,44.1667 255.5,66.5C 254.833,66.5 254.5,66.8333 254.5,67.5C 253.833,67.5 253.5,67.8333 253.5,68.5C 249.966,70.7664 246.3,72.7664 242.5,74.5C 267.167,49.5 291.833,24.5 316.5,-0.5 Z"/></g>
<g><path style="opacity:0.02" fill="#43443f" d="M 336.5,-0.5 C 338.167,-0.5 339.833,-0.5 341.5,-0.5C 326.5,14.8333 311.5,30.1667 296.5,45.5C 295.833,45.5 295.5,45.8333 295.5,46.5C 292.622,48.1054 289.622,49.4388 286.5,50.5C 303.167,33.5 319.833,16.5 336.5,-0.5 Z"/></g>
<g><path style="opacity:0.02" fill="#43443f" d="M 356.5,-0.5 C 358.167,-0.5 359.833,-0.5 361.5,-0.5C 351.167,10.1667 340.833,20.8333 330.5,31.5C 329.833,31.5 329.5,31.8333 329.5,32.5C 327.167,33.1667 324.833,33.8333 322.5,34.5C 333.833,22.8333 345.167,11.1667 356.5,-0.5 Z"/></g>
<g><path style="opacity:0.02" fill="#44443f" d="M 376.5,-0.5 C 378.167,-0.5 379.833,-0.5 381.5,-0.5C 374.5,6.83333 367.5,14.1667 360.5,21.5C 358.299,22.5664 355.965,23.233 353.5,23.5C 361.167,15.5 368.833,7.5 376.5,-0.5 Z"/></g>
<g><path style="opacity:0.02" fill="#44443f" d="M 396.5,-0.5 C 398.167,-0.5 399.833,-0.5 401.5,-0.5C 397.167,4.16667 392.833,8.83333 388.5,13.5C 386.299,14.5664 383.965,15.233 381.5,15.5C 386.5,10.1667 391.5,4.83333 396.5,-0.5 Z"/></g>
<g><path style="opacity:0.02" fill="#43443f" d="M 416.5,-0.5 C 418.167,-0.5 419.833,-0.5 421.5,-0.5C 418.833,2.5 416.167,5.5 413.5,8.5C 413.167,8.5 412.833,8.5 412.5,8.5C 410.883,9.038 409.216,9.37133 407.5,9.5C 410.5,6.16667 413.5,2.83333 416.5,-0.5 Z"/></g>
<g><path style="opacity:0.02" fill="#49443f" d="M 436.5,-0.5 C 438.167,-0.5 439.833,-0.5 441.5,-0.5C 440.167,1.16667 438.833,2.83333 437.5,4.5C 435.435,4.51715 433.435,4.85048 431.5,5.5C 433.167,3.5 434.833,1.5 436.5,-0.5 Z"/></g>
<g><path style="opacity:0.02" fill="#4b443f" d="M 456.5,-0.5 C 458.167,-0.5 459.833,-0.5 461.5,-0.5C 461.167,0.166667 460.833,0.833333 460.5,1.5C 458.435,1.51715 456.435,1.85048 454.5,2.5C 455.167,1.5 455.833,0.5 456.5,-0.5 Z"/></g>
<g><path style="opacity:1" fill="#f34e33" d="M 476.5,-0.5 C 498.833,-0.5 521.167,-0.5 543.5,-0.5C 547.634,0.484888 551.968,0.818222 556.5,0.5C 557.568,1.43448 558.901,1.76781 560.5,1.5C 564.842,1.73948 569.176,2.07281 573.5,2.5C 383.785,193.215 193.452,383.215 2.5,572.5C 1.97913,568.519 1.6458,564.519 1.5,560.5C 1.76781,558.901 1.43448,557.568 0.5,556.5C 0.818222,551.968 0.484888,547.634 -0.5,543.5C -0.5,521.167 -0.5,498.833 -0.5,476.5C 0.551416,471.354 1.21808,466.021 1.5,460.5C 1.51715,458.435 1.85048,456.435 2.5,454.5C 2.75816,448.769 3.42482,443.102 4.5,437.5C 4.51715,435.435 4.85048,433.435 5.5,431.5C 6.06923,425.418 7.06923,419.418 8.5,413.5C 8.5,413.167 8.5,412.833 8.5,412.5C 143.5,278.167 278.167,143.5 412.5,8.5C 412.833,8.5 413.167,8.5 413.5,8.5C 419.418,7.06923 425.418,6.06923 431.5,5.5C 433.435,4.85048 435.435,4.51715 437.5,4.5C 443.102,3.42482 448.769,2.75816 454.5,2.5C 456.435,1.85048 458.435,1.51715 460.5,1.5C 466.021,1.21808 471.354,0.551416 476.5,-0.5 Z"/></g>
<g><path style="opacity:0.021" fill="#43443f" d="M 556.5,-0.5 C 558.167,-0.5 559.833,-0.5 561.5,-0.5C 561.167,0.166667 560.833,0.833333 560.5,1.5C 558.901,1.76781 557.568,1.43448 556.5,0.5C 556.5,0.166667 556.5,-0.166667 556.5,-0.5 Z"/></g>
<g><path style="opacity:0.02" fill="#46443f" d="M 576.5,-0.5 C 578.167,-0.5 579.833,-0.5 581.5,-0.5C 580.5,0.833333 579.5,2.16667 578.5,3.5C 577.041,3.56745 575.708,3.23411 574.5,2.5C 575.167,1.5 575.833,0.5 576.5,-0.5 Z"/></g>
<g><path style="opacity:0.02" fill="#43443f" d="M 596.5,-0.5 C 598.167,-0.5 599.833,-0.5 601.5,-0.5C 599.833,1.5 598.167,3.5 596.5,5.5C 594.833,5.5 593.167,5.5 591.5,5.5C 593.167,3.5 594.833,1.5 596.5,-0.5 Z"/></g>
<g><path style="opacity:0.02" fill="#43443f" d="M 616.5,-0.5 C 618.167,-0.5 619.833,-0.5 621.5,-0.5C 618.833,2.83333 615.833,5.83333 612.5,8.5C 611.167,8.5 609.833,8.5 608.5,8.5C 611.167,5.5 613.833,2.5 616.5,-0.5 Z"/></g>
<g><path style="opacity:0.02" fill="#44433f" d="M 636.5,-0.5 C 638.167,-0.5 639.833,-0.5 641.5,-0.5C 637.5,3.83333 633.5,8.16667 629.5,12.5C 628.041,12.5674 626.708,12.2341 625.5,11.5C 629.167,7.5 632.833,3.5 636.5,-0.5 Z"/></g>
<g><path style="opacity:0.02" fill="#44443f" d="M 656.5,-0.5 C 658.167,-0.5 659.833,-0.5 661.5,-0.5C 656.167,5.16667 650.833,10.8333 645.5,16.5C 644.041,16.5674 642.708,16.2341 641.5,15.5C 646.5,10.1667 651.5,4.83333 656.5,-0.5 Z"/></g>
<g><path style="opacity:0.02" fill="#43443f" d="M 676.5,-0.5 C 678.167,-0.5 679.833,-0.5 681.5,-0.5C 674.833,6.83333 667.833,13.8333 660.5,20.5C 659.209,20.7373 658.209,20.404 657.5,19.5C 663.833,12.8333 670.167,6.16667 676.5,-0.5 Z"/></g>
<g><path style="opacity:0.02" fill="#43443f" d="M 696.5,-0.5 C 698.167,-0.5 699.833,-0.5 701.5,-0.5C 693.167,8.16667 684.833,16.8333 676.5,25.5C 675.041,25.5674 673.708,25.2341 672.5,24.5C 680.5,16.1667 688.5,7.83333 696.5,-0.5 Z"/></g>
<g><path style="opacity:0.02" fill="#43443f" d="M 716.5,-0.5 C 718.167,-0.5 719.833,-0.5 721.5,-0.5C 711.5,10.1667 701.167,20.5 690.5,30.5C 689.209,30.7373 688.209,30.404 687.5,29.5C 697.167,19.5 706.833,9.5 716.5,-0.5 Z"/></g>
<g><path style="opacity:0.02" fill="#43443f" d="M 736.5,-0.5 C 738.167,-0.5 739.833,-0.5 741.5,-0.5C 729.5,11.8333 717.5,24.1667 705.5,36.5C 704.167,36.1667 702.833,35.8333 701.5,35.5C 713.167,23.5 724.833,11.5 736.5,-0.5 Z"/></g>
<g><path style="opacity:0.02" fill="#43443f" d="M 756.5,-0.5 C 758.167,-0.5 759.833,-0.5 761.5,-0.5C 747.5,13.8333 733.5,28.1667 719.5,42.5C 717.847,42.3404 716.514,41.6737 715.5,40.5C 729.5,27.1667 743.167,13.5 756.5,-0.5 Z"/></g>
<g><path style="opacity:0.02" fill="#43443f" d="M 776.5,-0.5 C 778.167,-0.5 779.833,-0.5 781.5,-0.5C 765.5,16.1667 749.167,32.5 732.5,48.5C 731.391,48.4431 730.391,48.1098 729.5,47.5C 745.167,31.5 760.833,15.5 776.5,-0.5 Z"/></g>
<g><path style="opacity:0.02" fill="#44433f" d="M 796.5,-0.5 C 798.167,-0.5 799.833,-0.5 801.5,-0.5C 783.167,18.1667 764.833,36.8333 746.5,55.5C 744.847,55.3404 743.514,54.6737 742.5,53.5C 760.833,35.8333 778.833,17.8333 796.5,-0.5 Z"/></g>
<g><path style="opacity:0.02" fill="#44443f" d="M 816.5,-0.5 C 818.167,-0.5 819.833,-0.5 821.5,-0.5C 800.833,20.5 780.167,41.5 759.5,62.5C 757.973,62.573 756.973,61.9063 756.5,60.5C 776.5,40.1667 796.5,19.8333 816.5,-0.5 Z"/></g>
<g><path style="opacity:0.02" fill="#43443f" d="M 836.5,-0.5 C 838.167,-0.5 839.833,-0.5 841.5,-0.5C 818.5,22.8333 795.5,46.1667 772.5,69.5C 770.847,69.3404 769.514,68.6737 768.5,67.5C 791.5,45.1667 814.167,22.5 836.5,-0.5 Z"/></g>
<g><path style="opacity:0.02" fill="#44433f" d="M 856.5,-0.5 C 858.167,-0.5 859.833,-0.5 861.5,-0.5C 835.833,25.5 810.167,51.5 784.5,77.5C 783.29,77.0679 782.29,76.4013 781.5,75.5C 806.5,50.1667 831.5,24.8333 856.5,-0.5 Z"/></g>
<g><path style="opacity:0.02" fill="#44433f" d="M 876.5,-0.5 C 878.167,-0.5 879.833,-0.5 881.5,-0.5C 853.167,28.1667 824.833,56.8333 796.5,85.5C 795.5,84.8333 794.5,84.1667 793.5,83.5C 821.167,55.5 848.833,27.5 876.5,-0.5 Z"/></g>
<g><path style="opacity:0.02" fill="#43443f" d="M 896.5,-0.5 C 898.167,-0.5 899.833,-0.5 901.5,-0.5C 870.5,30.8333 839.5,62.1667 808.5,93.5C 807.5,92.8333 806.5,92.1667 805.5,91.5C 835.833,60.8333 866.167,30.1667 896.5,-0.5 Z"/></g>
<g><path style="opacity:0.02" fill="#43443f" d="M 916.5,-0.5 C 918.167,-0.5 919.833,-0.5 921.5,-0.5C 887.833,33.8333 853.833,67.8333 819.5,101.5C 818.5,101.167 817.833,100.5 817.5,99.5C 850.5,66.1667 883.5,32.8333 916.5,-0.5 Z"/></g>
<g><path style="opacity:0.02" fill="#44433f" d="M 936.5,-0.5 C 938.167,-0.5 939.833,-0.5 941.5,-0.5C 904.833,36.5 868.167,73.5 831.5,110.5C 830.29,110.068 829.29,109.401 828.5,108.5C 864.5,72.1667 900.5,35.8333 936.5,-0.5 Z"/></g>
<g><path style="opacity:0.02" fill="#44443f" d="M 956.5,-0.5 C 958.167,-0.5 959.833,-0.5 961.5,-0.5C 921.833,39.5 882.167,79.5 842.5,119.5C 841.29,119.068 840.29,118.401 839.5,117.5C 878.5,78.1667 917.5,38.8333 956.5,-0.5 Z"/></g>
<g><path style="opacity:0.02" fill="#43443f" d="M 976.5,-0.5 C 978.167,-0.5 979.833,-0.5 981.5,-0.5C 938.833,42.8333 895.833,85.8333 852.5,128.5C 851.5,128.167 850.833,127.5 850.5,126.5C 892.5,84.1667 934.5,41.8333 976.5,-0.5 Z"/></g>
<g><path style="opacity:0.02" fill="#43443f" d="M 996.5,-0.5 C 998.167,-0.5 999.833,-0.5 1001.5,-0.5C 955.5,45.8333 909.5,92.1667 863.5,138.5C 862.167,137.833 861.167,136.833 860.5,135.5C 906.167,90.5 951.5,45.1667 996.5,-0.5 Z"/></g>
<g><path style="opacity:0.02" fill="#43443f" d="M 1016.5,-0.5 C 1018.17,-0.5 1019.83,-0.5 1021.5,-0.5C 972.167,49.1667 922.833,98.8333 873.5,148.5C 872.167,147.833 871.167,146.833 870.5,145.5C 919.5,97.1667 968.167,48.5 1016.5,-0.5 Z"/></g>
<g><path style="opacity:0.02" fill="#43443f" d="M 1023.5,13.5 C 1023.5,15.1667 1023.5,16.8333 1023.5,18.5C 976.5,64.8333 929.833,111.5 883.5,158.5C 882.167,157.833 881.167,156.833 880.5,155.5C 928.167,108.167 975.833,60.8333 1023.5,13.5 Z"/></g>
<g><path style="opacity:0.998" fill="#f34e33" d="M 412.5,8.5 C 278.167,143.5 143.5,278.167 8.5,412.5C 9.038,410.883 9.37133,409.216 9.5,407.5C 10.9902,401.205 12.3235,394.872 13.5,388.5C 14.3186,386.228 14.9853,383.894 15.5,381.5C 17.5,374.5 19.5,367.5 21.5,360.5C 22.5664,358.299 23.233,355.965 23.5,353.5C 26.1651,345.838 28.8318,338.172 31.5,330.5C 32.1667,330.5 32.5,330.167 32.5,329.5C 33.1667,327.167 33.8333,324.833 34.5,322.5C 38.5553,314.002 42.222,305.335 45.5,296.5C 46.1667,296.5 46.5,296.167 46.5,295.5C 48.1054,292.622 49.4388,289.622 50.5,286.5C 56.1015,276.297 61.4349,265.963 66.5,255.5C 67.1667,255.5 67.5,255.167 67.5,254.5C 68.1667,254.5 68.5,254.167 68.5,253.5C 70.7664,249.966 72.7664,246.3 74.5,242.5C 85.6839,225.454 97.3506,208.788 109.5,192.5C 110.167,192.5 110.5,192.167 110.5,191.5C 111.167,191.5 111.5,191.167 111.5,190.5C 112.167,190.5 112.5,190.167 112.5,189.5C 113.167,189.5 113.5,189.167 113.5,188.5C 136.167,161.167 161.167,136.167 188.5,113.5C 189.167,113.5 189.5,113.167 189.5,112.5C 190.167,112.5 190.5,112.167 190.5,111.5C 191.167,111.5 191.5,111.167 191.5,110.5C 192.167,110.5 192.5,110.167 192.5,109.5C 208.788,97.3506 225.454,85.6839 242.5,74.5C 246.3,72.7664 249.966,70.7664 253.5,68.5C 254.167,68.5 254.5,68.1667 254.5,67.5C 255.167,67.5 255.5,67.1667 255.5,66.5C 265.963,61.4349 276.297,56.1015 286.5,50.5C 289.622,49.4388 292.622,48.1054 295.5,46.5C 296.167,46.5 296.5,46.1667 296.5,45.5C 305.335,42.222 314.002,38.5553 322.5,34.5C 324.833,33.8333 327.167,33.1667 329.5,32.5C 330.167,32.5 330.5,32.1667 330.5,31.5C 338.172,28.8318 345.838,26.1651 353.5,23.5C 355.965,23.233 358.299,22.5664 360.5,21.5C 367.5,19.5 374.5,17.5 381.5,15.5C 383.965,15.233 386.299,14.5664 388.5,13.5C 394.872,12.3235 401.205,10.9902 407.5,9.5C 409.216,9.37133 410.883,9.038 412.5,8.5 Z"/></g>
<g><path style="opacity:0.998" fill="#f34e33" d="M 573.5,2.5 C 573.833,2.5 574.167,2.5 574.5,2.5C 575.708,3.23411 577.041,3.56745 578.5,3.5C 582.928,3.79876 587.261,4.46543 591.5,5.5C 593.167,5.5 594.833,5.5 596.5,5.5C 600.407,6.49198 604.407,7.49198 608.5,8.5C 609.833,8.5 611.167,8.5 612.5,8.5C 616.632,9.8632 620.965,10.8632 625.5,11.5C 626.708,12.2341 628.041,12.5674 629.5,12.5C 633.5,13.5 637.5,14.5 641.5,15.5C 642.708,16.2341 644.041,16.5674 645.5,16.5C 649.381,17.9034 653.381,18.9034 657.5,19.5C 658.209,20.404 659.209,20.7373 660.5,20.5C 664.341,22.0026 668.341,23.3359 672.5,24.5C 673.708,25.2341 675.041,25.5674 676.5,25.5C 679.95,27.2078 683.617,28.5412 687.5,29.5C 688.209,30.404 689.209,30.7373 690.5,30.5C 694.01,32.3443 697.677,34.011 701.5,35.5C 702.833,35.8333 704.167,36.1667 705.5,36.5C 708.551,38.3523 711.884,39.6857 715.5,40.5C 716.514,41.6737 717.847,42.3404 719.5,42.5C 722.768,44.134 726.101,45.8007 729.5,47.5C 730.391,48.1098 731.391,48.4431 732.5,48.5C 735.515,50.6744 738.849,52.3411 742.5,53.5C 743.514,54.6737 744.847,55.3404 746.5,55.5C 749.515,57.6744 752.849,59.3411 756.5,60.5C 756.973,61.9063 757.973,62.573 759.5,62.5C 762.331,64.4168 765.331,66.0834 768.5,67.5C 769.514,68.6737 770.847,69.3404 772.5,69.5C 775.291,71.7349 778.291,73.7349 781.5,75.5C 782.29,76.4013 783.29,77.0679 784.5,77.5C 787.5,79.5 790.5,81.5 793.5,83.5C 794.5,84.1667 795.5,84.8333 796.5,85.5C 799.5,87.5 802.5,89.5 805.5,91.5C 806.5,92.1667 807.5,92.8333 808.5,93.5C 811.357,95.7583 814.357,97.7583 817.5,99.5C 817.833,100.5 818.5,101.167 819.5,101.5C 822.28,104.064 825.28,106.397 828.5,108.5C 829.29,109.401 830.29,110.068 831.5,110.5C 834.126,112.823 836.793,115.157 839.5,117.5C 840.29,118.401 841.29,119.068 842.5,119.5C 844.751,122.295 847.418,124.628 850.5,126.5C 850.833,127.5 851.5,128.167 852.5,128.5C 852.5,128.833 852.5,129.167 852.5,129.5C 804.811,176.189 757.811,223.522 711.5,271.5C 709.279,268.377 706.279,266.211 702.5,265C 687.17,264.5 671.837,264.333 656.5,264.5C 656.5,264.167 656.5,263.833 656.5,263.5C 666.839,263.666 677.172,263.5 687.5,263C 675.58,250.577 663.247,238.744 650.5,227.5C 644.151,216.146 634.818,208.48 622.5,204.5C 611.062,193.563 599.728,182.396 588.5,171C 587.552,170.517 586.552,170.351 585.5,170.5C 580.624,163.557 573.957,159.391 565.5,158C 528.167,157.333 490.833,157.333 453.5,158C 441.842,160.991 434.009,168.158 430,179.5C 429.5,187.493 429.334,195.493 429.5,203.5C 405.286,198.952 385.786,206.285 371,225.5C 366.496,232.519 364.329,240.186 364.5,248.5C 363.513,253.305 363.179,258.305 363.5,263.5C 348.99,263.171 334.657,263.504 320.5,264.5C 314.062,265.94 309.396,269.607 306.5,275.5C 205.5,376.167 104.5,476.833 3.5,577.5C 3.44312,576.391 3.10978,575.391 2.5,574.5C 2.5,573.833 2.5,573.167 2.5,572.5C 193.452,383.215 383.785,193.215 573.5,2.5 Z"/></g>
<g><path style="opacity:0.02" fill="#44443f" d="M 1023.5,33.5 C 1023.5,35.1667 1023.5,36.8333 1023.5,38.5C 979.833,81.8333 936.167,125.167 892.5,168.5C 891.599,167.71 890.932,166.71 890.5,165.5C 934.833,121.5 979.167,77.5 1023.5,33.5 Z"/></g>
<g><path style="opacity:0.02" fill="#43443f" d="M 1023.5,53.5 C 1023.5,55.1667 1023.5,56.8333 1023.5,58.5C 982.833,98.5 942.5,138.833 902.5,179.5C 901.167,178.833 900.167,177.833 899.5,176.5C 940.833,135.5 982.167,94.5 1023.5,53.5 Z"/></g>
<g><path style="opacity:0.02" fill="#43443f" d="M 1023.5,73.5 C 1023.5,75.1667 1023.5,76.8333 1023.5,78.5C 985.833,115.5 948.5,152.833 911.5,190.5C 910.094,190.027 909.427,189.027 909.5,187.5C 947.167,149.167 985.167,111.167 1023.5,73.5 Z"/></g>
<g><path style="opacity:0.02" fill="#43443f" d="M 1023.5,93.5 C 1023.5,95.1667 1023.5,96.8333 1023.5,98.5C 988.833,132.5 954.5,166.833 920.5,201.5C 919.167,200.833 918.167,199.833 917.5,198.5C 952.833,163.5 988.167,128.5 1023.5,93.5 Z"/></g>
<g><path style="opacity:0.02" fill="#43443f" d="M 1023.5,113.5 C 1023.5,115.167 1023.5,116.833 1023.5,118.5C 991.833,149.833 960.167,181.167 928.5,212.5C 927.094,212.027 926.427,211.027 926.5,209.5C 958.833,177.5 991.167,145.5 1023.5,113.5 Z"/></g>
<g><path style="opacity:0.02" fill="#44433f" d="M 1023.5,133.5 C 1023.5,135.167 1023.5,136.833 1023.5,138.5C 994.5,167.167 965.5,195.833 936.5,224.5C 935.599,223.71 934.932,222.71 934.5,221.5C 964.167,192.167 993.833,162.833 1023.5,133.5 Z"/></g>
<g><path style="opacity:0.02" fill="#44443f" d="M 296.5,-0.5 C 298.167,-0.5 299.833,-0.5 301.5,-0.5C 265.167,36.1667 228.833,72.8333 192.5,109.5C 191.833,109.5 191.5,109.833 191.5,110.5C 190.833,110.5 190.5,110.833 190.5,111.5C 189.833,111.5 189.5,111.833 189.5,112.5C 188.833,112.5 188.5,112.833 188.5,113.5C 161.167,136.167 136.167,161.167 113.5,188.5C 112.833,188.5 112.5,188.833 112.5,189.5C 111.833,189.5 111.5,189.833 111.5,190.5C 110.833,190.5 110.5,190.833 110.5,191.5C 109.833,191.5 109.5,191.833 109.5,192.5C 72.8333,228.833 36.1667,265.167 -0.5,301.5C -0.5,299.833 -0.5,298.167 -0.5,296.5C 98.8333,197.833 197.833,98.8333 296.5,-0.5 Z"/></g>
<g><path style="opacity:0.02" fill="#43443f" d="M 1023.5,153.5 C 1023.5,155.167 1023.5,156.833 1023.5,158.5C 997.167,184.5 970.833,210.5 944.5,236.5C 943.599,235.71 942.932,234.71 942.5,233.5C 969.5,206.833 996.5,180.167 1023.5,153.5 Z"/></g>
<g><path style="opacity:1" fill="#fdeee2" d="M 585.5,170.5 C 587.514,173.194 589.014,176.194 590,179.5C 590.5,187.493 590.666,195.493 590.5,203.5C 536.833,203.5 483.167,203.5 429.5,203.5C 429.334,195.493 429.5,187.493 430,179.5C 434.009,168.158 441.842,160.991 453.5,158C 490.833,157.333 528.167,157.333 565.5,158C 573.957,159.391 580.624,163.557 585.5,170.5 Z"/></g>
<g><path style="opacity:0.02" fill="#43443f" d="M 1023.5,173.5 C 1023.5,175.167 1023.5,176.833 1023.5,178.5C 999.5,201.833 975.833,225.5 952.5,249.5C 951.326,248.486 950.66,247.153 950.5,245.5C 974.833,221.5 999.167,197.5 1023.5,173.5 Z"/></g>
<g><path style="opacity:1" fill="#d1311d" d="M 585.5,170.5 C 586.552,170.351 587.552,170.517 588.5,171C 599.728,182.396 611.062,193.563 622.5,204.5C 611.854,203.688 601.187,203.354 590.5,203.5C 590.666,195.493 590.5,187.493 590,179.5C 589.014,176.194 587.514,173.194 585.5,170.5 Z"/></g>
<g><path style="opacity:0.02" fill="#43443f" d="M 1023.5,193.5 C 1023.5,195.167 1023.5,196.833 1023.5,198.5C 1002.17,219.5 980.833,240.5 959.5,261.5C 958.599,260.71 957.932,259.71 957.5,258.5C 979.5,236.833 1001.5,215.167 1023.5,193.5 Z"/></g>
<g><path style="opacity:1" fill="#48515e" d="M 429.5,203.5 C 483.167,203.5 536.833,203.5 590.5,203.5C 601.187,203.354 611.854,203.688 622.5,204.5C 634.818,208.48 644.151,216.146 650.5,227.5C 656.001,238.832 658.001,250.832 656.5,263.5C 656.5,263.833 656.5,264.167 656.5,264.5C 656.5,301.833 656.5,339.167 656.5,376.5C 630.424,351.925 604.757,326.759 579.5,301C 578.906,300.536 578.239,300.369 577.5,300.5C 552.196,267.57 519.53,257.403 479.5,270C 442.622,287.909 426.122,317.409 430,358.5C 432.392,370.943 437.225,382.276 444.5,392.5C 443.761,392.369 443.094,392.536 442.5,393C 416.632,419.035 390.632,444.868 364.5,470.5C 364.5,463.167 364.5,455.833 364.5,448.5C 364.5,440.5 364.5,432.5 364.5,424.5C 364.5,371.167 364.5,317.833 364.5,264.5C 364.5,259.167 364.5,253.833 364.5,248.5C 364.329,240.186 366.496,232.519 371,225.5C 385.786,206.285 405.286,198.952 429.5,203.5 Z"/></g>
<g><path style="opacity:0.02" fill="#43443f" d="M 1023.5,213.5 C 1023.5,215.167 1023.5,216.833 1023.5,218.5C 1004.5,237.167 985.5,255.833 966.5,274.5C 965.599,273.71 964.932,272.71 964.5,271.5C 984.167,252.167 1003.83,232.833 1023.5,213.5 Z"/></g>
<g><path style="opacity:0.999" fill="#f34e32" d="M 852.5,129.5 C 855.45,131.115 858.116,133.115 860.5,135.5C 861.167,136.833 862.167,137.833 863.5,138.5C 865.5,141.167 867.833,143.5 870.5,145.5C 871.167,146.833 872.167,147.833 873.5,148.5C 875.5,151.167 877.833,153.5 880.5,155.5C 881.167,156.833 882.167,157.833 883.5,158.5C 885.5,161.167 887.833,163.5 890.5,165.5C 890.932,166.71 891.599,167.71 892.5,168.5C 894.833,171.167 897.167,173.833 899.5,176.5C 900.167,177.833 901.167,178.833 902.5,179.5C 904.372,182.582 906.705,185.249 909.5,187.5C 909.427,189.027 910.094,190.027 911.5,190.5C 913.115,193.45 915.115,196.116 917.5,198.5C 918.167,199.833 919.167,200.833 920.5,201.5C 922.016,204.533 924.016,207.2 926.5,209.5C 926.427,211.027 927.094,212.027 928.5,212.5C 930.265,215.709 932.265,218.709 934.5,221.5C 934.932,222.71 935.599,223.71 936.5,224.5C 938.265,227.709 940.265,230.709 942.5,233.5C 942.932,234.71 943.599,235.71 944.5,236.5C 945.769,240.054 947.769,243.054 950.5,245.5C 950.66,247.153 951.326,248.486 952.5,249.5C 953.913,252.661 955.58,255.661 957.5,258.5C 957.932,259.71 958.599,260.71 959.5,261.5C 961.153,264.807 962.82,268.14 964.5,271.5C 964.932,272.71 965.599,273.71 966.5,274.5C 967.659,278.151 969.326,281.485 971.5,284.5C 971.66,286.153 972.326,287.486 973.5,288.5C 974.659,292.151 976.326,295.485 978.5,298.5C 978.263,299.791 978.596,300.791 979.5,301.5C 980.93,305.354 982.597,309.021 984.5,312.5C 984.263,313.791 984.596,314.791 985.5,315.5C 986.833,319.167 988.167,322.833 989.5,326.5C 989.989,327.995 990.655,329.329 991.5,330.5C 992.462,334.395 993.796,338.061 995.5,341.5C 995.263,342.791 995.596,343.791 996.5,344.5C 997.462,348.395 998.796,352.061 1000.5,355.5C 1000.23,357.099 1000.57,358.432 1001.5,359.5C 1002.5,363.499 1003.5,367.499 1004.5,371.5C 1005.23,372.708 1005.57,374.041 1005.5,375.5C 1006.9,379.381 1007.9,383.381 1008.5,387.5C 1008.99,388.995 1009.66,390.329 1010.5,391.5C 1010.85,395.557 1011.51,399.557 1012.5,403.5C 1012.83,404.833 1013.17,406.167 1013.5,407.5C 1014.14,412.035 1015.14,416.368 1016.5,420.5C 1016.5,421.833 1016.5,423.167 1016.5,424.5C 1017.49,428.772 1018.16,433.106 1018.5,437.5C 1018.83,438.833 1019.17,440.167 1019.5,441.5C 1020,446.152 1020.33,450.819 1020.5,455.5C 1021.23,456.708 1021.57,458.041 1021.5,459.5C 1021.53,464.391 1022.2,469.057 1023.5,473.5C 1023.5,475.167 1023.5,476.833 1023.5,478.5C 1022.17,478.833 1022.17,479.167 1023.5,479.5C 1023.5,500.833 1023.5,522.167 1023.5,543.5C 1022.52,546.625 1022.19,549.958 1022.5,553.5C 1022.17,555.5 1021.83,557.5 1021.5,559.5C 1021.17,564.833 1020.83,570.167 1020.5,575.5C 1020.17,575.5 1019.83,575.5 1019.5,575.5C 986.833,543.833 954.167,512.167 921.5,480.5C 852.499,411.499 783.166,342.833 713.5,274.5C 712.599,273.71 711.932,272.71 711.5,271.5C 757.811,223.522 804.811,176.189 852.5,129.5 Z"/></g>
<g><path style="opacity:0.02" fill="#43443f" d="M 1023.5,233.5 C 1023.5,235.167 1023.5,236.833 1023.5,238.5C 1006.5,254.833 989.833,271.5 973.5,288.5C 972.326,287.486 971.66,286.153 971.5,284.5C 988.833,267.5 1006.17,250.5 1023.5,233.5 Z"/></g>
<g><path style="opacity:0.02" fill="#44443f" d="M 74.5,242.5 C 72.7664,246.3 70.7664,249.966 68.5,253.5C 67.8333,253.5 67.5,253.833 67.5,254.5C 66.8333,254.5 66.5,254.833 66.5,255.5C 44.1667,277.5 21.8333,299.5 -0.5,321.5C -0.5,319.833 -0.5,318.167 -0.5,316.5C 24.5,291.833 49.5,267.167 74.5,242.5 Z"/></g>
<g><path style="opacity:1" fill="#d1311c" d="M 650.5,227.5 C 663.247,238.744 675.58,250.577 687.5,263C 677.172,263.5 666.839,263.666 656.5,263.5C 658.001,250.832 656.001,238.832 650.5,227.5 Z"/></g>
<g><path style="opacity:0.02" fill="#44443f" d="M 1023.5,253.5 C 1023.5,255.167 1023.5,256.833 1023.5,258.5C 1008.83,272.833 994.167,287.167 979.5,301.5C 978.596,300.791 978.263,299.791 978.5,298.5C 993.167,283.167 1008.17,268.167 1023.5,253.5 Z"/></g>
<g><path style="opacity:1" fill="#ed6750" d="M 364.5,248.5 C 364.5,253.833 364.5,259.167 364.5,264.5C 364.167,264.5 363.833,264.5 363.5,264.5C 349.167,264.5 334.833,264.5 320.5,264.5C 334.657,263.504 348.99,263.171 363.5,263.5C 363.179,258.305 363.513,253.305 364.5,248.5 Z"/></g>
<g><path style="opacity:1" fill="#f34f33" d="M 577.5,300.5 C 593.943,328.278 594.777,356.612 580,385.5C 559.072,417.493 529.572,430.326 491.5,424C 481.965,421.227 472.965,417.394 464.5,412.5C 456.861,406.861 450.194,400.194 444.5,392.5C 437.225,382.276 432.392,370.943 430,358.5C 426.122,317.409 442.622,287.909 479.5,270C 519.53,257.403 552.196,267.57 577.5,300.5 Z"/></g>
<g><path style="opacity:1" fill="#fdefe3" d="M 656.5,264.5 C 671.837,264.333 687.17,264.5 702.5,265C 706.279,266.211 709.279,268.377 711.5,271.5C 711.932,272.71 712.599,273.71 713.5,274.5C 714.975,279.664 714.475,284.664 712,289.5C 693.767,334.721 675.267,379.721 656.5,424.5C 656.5,408.5 656.5,392.5 656.5,376.5C 656.5,339.167 656.5,301.833 656.5,264.5 Z"/></g>
<g><path style="opacity:0.02" fill="#44443f" d="M 1023.5,273.5 C 1023.5,275.167 1023.5,276.833 1023.5,278.5C 1010.83,290.833 998.167,303.167 985.5,315.5C 984.596,314.791 984.263,313.791 984.5,312.5C 997.167,299.167 1010.17,286.167 1023.5,273.5 Z"/></g>
<g><path style="opacity:0.02" fill="#43443f" d="M 50.5,286.5 C 49.4388,289.622 48.1054,292.622 46.5,295.5C 45.8333,295.5 45.5,295.833 45.5,296.5C 30.1667,311.5 14.8333,326.5 -0.5,341.5C -0.5,339.833 -0.5,338.167 -0.5,336.5C 16.5,319.833 33.5,303.167 50.5,286.5 Z"/></g>
<g><path style="opacity:0.02" fill="#44433f" d="M 1023.5,293.5 C 1023.5,295.167 1023.5,296.833 1023.5,298.5C 1012.5,308.833 1001.83,319.5 991.5,330.5C 990.655,329.329 989.989,327.995 989.5,326.5C 1000.83,315.5 1012.17,304.5 1023.5,293.5 Z"/></g>
<g><path style="opacity:1" fill="#353c45" d="M 577.5,300.5 C 578.239,300.369 578.906,300.536 579.5,301C 604.757,326.759 630.424,351.925 656.5,376.5C 656.5,392.5 656.5,408.5 656.5,424.5C 656.5,432.5 656.5,440.5 656.5,448.5C 656.5,501.833 656.5,555.167 656.5,608.5C 656.5,616.5 656.5,624.5 656.5,632.5C 656.5,685.833 656.5,739.167 656.5,792.5C 659.455,817.425 650.122,835.925 628.5,848C 625.226,849.202 621.893,850.202 618.5,851C 590.502,851.5 562.502,851.667 534.5,851.5C 512.035,828.535 489.368,805.701 466.5,783C 466.728,782.601 467.062,782.435 467.5,782.5C 505.233,801.602 539.4,796.602 570,767.5C 593.389,737.996 596.722,706.329 580,672.5C 561.247,643.374 534.413,630.04 499.5,632.5C 487.785,620.453 476.118,608.453 464.5,596.5C 488.574,610.97 513.907,613.47 540.5,604C 572.626,589.44 589.293,564.44 590.5,529C 588.877,492.392 571.21,467.058 537.5,453C 525.166,448.947 512.499,447.447 499.5,448.5C 487.757,436.426 476.091,424.426 464.5,412.5C 472.965,417.394 481.965,421.227 491.5,424C 529.572,430.326 559.072,417.493 580,385.5C 594.777,356.612 593.943,328.278 577.5,300.5 Z"/></g>
<g><path style="opacity:1" fill="#f3a480" d="M 499.5,292.5 C 530.079,289.957 550.579,302.957 561,331.5C 565.862,355.255 558.695,374.422 539.5,389C 512.59,403.714 488.757,399.881 468,377.5C 456.952,361.035 454.619,343.368 461,324.5C 468.922,307.806 481.755,297.14 499.5,292.5 Z"/></g>
<g><path style="opacity:0.02" fill="#44443f" d="M 1023.5,313.5 C 1023.5,315.167 1023.5,316.833 1023.5,318.5C 1014.5,327.167 1005.5,335.833 996.5,344.5C 995.596,343.791 995.263,342.791 995.5,341.5C 1004.5,331.833 1013.83,322.5 1023.5,313.5 Z"/></g>
<g><path style="opacity:1" fill="#d9cfc8" d="M 363.5,264.5 C 363.833,264.5 364.167,264.5 364.5,264.5C 364.5,317.833 364.5,371.167 364.5,424.5C 364.167,424.5 363.833,424.5 363.5,424.5C 363.167,423.833 362.833,423.167 362.5,422.5C 363.499,370.003 363.832,317.336 363.5,264.5 Z"/></g>
<g><path style="opacity:1" fill="#fdefe3" d="M 320.5,264.5 C 334.833,264.5 349.167,264.5 363.5,264.5C 363.832,317.336 363.499,370.003 362.5,422.5C 344.104,376.817 325.604,331.151 307,285.5C 306.502,282.183 306.335,278.85 306.5,275.5C 309.396,269.607 314.062,265.94 320.5,264.5 Z"/></g>
<g><path style="opacity:0.02" fill="#43443f" d="M 34.5,322.5 C 33.8333,324.833 33.1667,327.167 32.5,329.5C 31.8333,329.5 31.5,329.833 31.5,330.5C 20.8333,340.833 10.1667,351.167 -0.5,361.5C -0.5,359.833 -0.5,358.167 -0.5,356.5C 11.1667,345.167 22.8333,333.833 34.5,322.5 Z"/></g>
<g><path style="opacity:0.02" fill="#44433f" d="M 1023.5,333.5 C 1023.5,335.167 1023.5,336.833 1023.5,338.5C 1016.17,345.5 1008.83,352.5 1001.5,359.5C 1000.57,358.432 1000.23,357.099 1000.5,355.5C 1008.17,348.167 1015.83,340.833 1023.5,333.5 Z"/></g>
<g><path style="opacity:0.02" fill="#45443f" d="M 23.5,353.5 C 23.233,355.965 22.5664,358.299 21.5,360.5C 14.1667,367.5 6.83333,374.5 -0.5,381.5C -0.5,379.833 -0.5,378.167 -0.5,376.5C 7.5,368.833 15.5,361.167 23.5,353.5 Z"/></g>
<g><path style="opacity:0.02" fill="#43443f" d="M 1023.5,353.5 C 1023.5,355.167 1023.5,356.833 1023.5,358.5C 1017.5,364.167 1011.5,369.833 1005.5,375.5C 1005.57,374.041 1005.23,372.708 1004.5,371.5C 1010.83,365.5 1017.17,359.5 1023.5,353.5 Z"/></g>
<g><path style="opacity:0.999" fill="#f34e33" d="M 306.5,275.5 C 306.335,278.85 306.502,282.183 307,285.5C 325.604,331.151 344.104,376.817 362.5,422.5C 362.833,423.167 363.167,423.833 363.5,424.5C 363.5,432.167 363.5,439.833 363.5,447.5C 348.99,447.171 334.657,447.504 320.5,448.5C 307.666,452.503 303.666,460.837 308.5,473.5C 221.806,559.527 135.473,645.86 49.5,732.5C 49.1667,732.5 48.8333,732.5 48.5,732.5C 48.4431,731.391 48.1098,730.391 47.5,729.5C 45.8007,726.101 44.134,722.768 42.5,719.5C 42.3404,717.847 41.6737,716.514 40.5,715.5C 39.6857,711.884 38.3523,708.551 36.5,705.5C 36.1667,704.167 35.8333,702.833 35.5,701.5C 34.011,697.677 32.3443,694.01 30.5,690.5C 30.7373,689.209 30.404,688.209 29.5,687.5C 28.9347,683.463 27.6013,679.797 25.5,676.5C 25.5674,675.041 25.2341,673.708 24.5,672.5C 23.3359,668.341 22.0026,664.341 20.5,660.5C 20.7373,659.209 20.404,658.209 19.5,657.5C 18.9034,653.381 17.9034,649.381 16.5,645.5C 16.5674,644.041 16.2341,642.708 15.5,641.5C 14.5,637.5 13.5,633.5 12.5,629.5C 12.5674,628.041 12.2341,626.708 11.5,625.5C 10.8632,620.965 9.8632,616.632 8.5,612.5C 8.5,611.167 8.5,609.833 8.5,608.5C 7.49198,604.407 6.49198,600.407 5.5,596.5C 5.5,594.833 5.5,593.167 5.5,591.5C 4.46543,587.261 3.79876,582.928 3.5,578.5C 3.5,578.167 3.5,577.833 3.5,577.5C 104.5,476.833 205.5,376.167 306.5,275.5 Z"/></g>
<g><path style="opacity:0.02" fill="#45443f" d="M 1023.5,373.5 C 1023.5,375.167 1023.5,376.833 1023.5,378.5C 1018.83,382.5 1014.5,386.833 1010.5,391.5C 1009.66,390.329 1008.99,388.995 1008.5,387.5C 1013.5,382.833 1018.5,378.167 1023.5,373.5 Z"/></g>
<g><path style="opacity:0.02" fill="#43443f" d="M 15.5,381.5 C 14.9853,383.894 14.3186,386.228 13.5,388.5C 8.83333,392.833 4.16667,397.167 -0.5,401.5C -0.5,399.833 -0.5,398.167 -0.5,396.5C 4.83333,391.5 10.1667,386.5 15.5,381.5 Z"/></g>
<g><path style="opacity:1" fill="#d1301c" d="M 713.5,274.5 C 783.166,342.833 852.499,411.499 921.5,480.5C 845.368,556.132 769.368,631.965 693.5,708C 692.906,708.464 692.239,708.631 691.5,708.5C 698.987,689.521 706.487,670.521 714,651.5C 714.66,642.502 710.827,636.335 702.5,633C 687.17,632.5 671.837,632.333 656.5,632.5C 656.5,624.5 656.5,616.5 656.5,608.5C 676.791,560.976 696.124,512.976 714.5,464.5C 713.48,456.932 709.48,451.765 702.5,449C 687.17,448.5 671.837,448.333 656.5,448.5C 656.5,440.5 656.5,432.5 656.5,424.5C 675.267,379.721 693.767,334.721 712,289.5C 714.475,284.664 714.975,279.664 713.5,274.5 Z"/></g>
<g><path style="opacity:0.02" fill="#43443f" d="M 1023.5,393.5 C 1023.5,395.167 1023.5,396.833 1023.5,398.5C 1020.17,401.5 1016.83,404.5 1013.5,407.5C 1013.17,406.167 1012.83,404.833 1012.5,403.5C 1016.17,400.167 1019.83,396.833 1023.5,393.5 Z"/></g>
<g><path style="opacity:0.02" fill="#43443f" d="M 9.5,407.5 C 9.37133,409.216 9.038,410.883 8.5,412.5C 8.5,412.833 8.5,413.167 8.5,413.5C 5.5,416.167 2.5,418.833 -0.5,421.5C -0.5,419.833 -0.5,418.167 -0.5,416.5C 2.83333,413.5 6.16667,410.5 9.5,407.5 Z"/></g>
<g><path style="opacity:0.02" fill="#43443f" d="M 1023.5,413.5 C 1023.5,415.167 1023.5,416.833 1023.5,418.5C 1021.17,420.5 1018.83,422.5 1016.5,424.5C 1016.5,423.167 1016.5,421.833 1016.5,420.5C 1018.5,417.833 1020.83,415.5 1023.5,413.5 Z"/></g>
<g><path style="opacity:0.02" fill="#49443f" d="M 5.5,431.5 C 4.85048,433.435 4.51715,435.435 4.5,437.5C 2.83333,438.833 1.16667,440.167 -0.5,441.5C -0.5,439.833 -0.5,438.167 -0.5,436.5C 1.5,434.833 3.5,433.167 5.5,431.5 Z"/></g>
<g><path style="opacity:0.02" fill="#43443f" d="M 1023.5,433.5 C 1023.5,435.167 1023.5,436.833 1023.5,438.5C 1022.17,439.5 1020.83,440.5 1019.5,441.5C 1019.17,440.167 1018.83,438.833 1018.5,437.5C 1020.17,436.167 1021.83,434.833 1023.5,433.5 Z"/></g>
<g><path style="opacity:1" fill="#ec664f" d="M 363.5,424.5 C 363.833,424.5 364.167,424.5 364.5,424.5C 364.5,432.5 364.5,440.5 364.5,448.5C 364.167,448.5 363.833,448.5 363.5,448.5C 349.167,448.5 334.833,448.5 320.5,448.5C 334.657,447.504 348.99,447.171 363.5,447.5C 363.5,439.833 363.5,432.167 363.5,424.5 Z"/></g>
<g><path style="opacity:1" fill="#fccb03" d="M 499.5,448.5 C 512.499,447.447 525.166,448.947 537.5,453C 571.21,467.058 588.877,492.392 590.5,529C 589.293,564.44 572.626,589.44 540.5,604C 513.907,613.47 488.574,610.97 464.5,596.5C 435.867,574.863 424.7,546.197 431,510.5C 440.985,475.683 463.819,455.017 499.5,448.5 Z"/></g>
<g><path style="opacity:0.02" fill="#494440" d="M 1023.5,453.5 C 1023.5,455.167 1023.5,456.833 1023.5,458.5C 1022.83,458.833 1022.17,459.167 1021.5,459.5C 1021.57,458.041 1021.23,456.708 1020.5,455.5C 1021.5,454.833 1022.5,454.167 1023.5,453.5 Z"/></g>
<g><path style="opacity:0.02" fill="#4b443f" d="M 2.5,454.5 C 1.85048,456.435 1.51715,458.435 1.5,460.5C 0.833333,460.833 0.166667,461.167 -0.5,461.5C -0.5,459.833 -0.5,458.167 -0.5,456.5C 0.5,455.833 1.5,455.167 2.5,454.5 Z"/></g>
<g><path style="opacity:1" fill="#fdefe3" d="M 656.5,448.5 C 671.837,448.333 687.17,448.5 702.5,449C 709.48,451.765 713.48,456.932 714.5,464.5C 696.124,512.976 676.791,560.976 656.5,608.5C 656.5,555.167 656.5,501.833 656.5,448.5 Z"/></g>
<g><path style="opacity:0.999" fill="#f34e33" d="M 308.5,473.5 C 326.774,517.716 344.774,562.049 362.5,606.5C 362.833,607.167 363.167,607.833 363.5,608.5C 363.5,616.167 363.5,623.833 363.5,631.5C 348.99,631.171 334.657,631.504 320.5,632.5C 309.464,635.228 304.964,642.228 307,653.5C 325.604,699.151 344.104,744.817 362.5,790.5C 362.833,791.5 363.5,792.167 364.5,792.5C 361.023,816.201 369.356,834.201 389.5,846.5C 424.452,882.119 459.785,917.452 495.5,952.5C 495.5,976.167 495.5,999.833 495.5,1023.5C 490.5,1023.5 485.5,1023.5 480.5,1023.5C 479.833,1022.17 479.167,1022.17 478.5,1023.5C 476.833,1023.5 475.167,1023.5 473.5,1023.5C 469.057,1022.2 464.391,1021.53 459.5,1021.5C 458.041,1021.57 456.708,1021.23 455.5,1020.5C 450.819,1020.33 446.152,1020 441.5,1019.5C 440.292,1018.77 438.959,1018.43 437.5,1018.5C 433.106,1018.16 428.772,1017.49 424.5,1016.5C 423.167,1016.5 421.833,1016.5 420.5,1016.5C 416.368,1015.14 412.035,1014.14 407.5,1013.5C 406.167,1013.17 404.833,1012.83 403.5,1012.5C 399.557,1011.51 395.557,1010.85 391.5,1010.5C 390.329,1009.66 388.995,1008.99 387.5,1008.5C 383.381,1007.9 379.381,1006.9 375.5,1005.5C 374.041,1005.57 372.708,1005.23 371.5,1004.5C 367.499,1003.5 363.499,1002.5 359.5,1001.5C 358.432,1000.57 357.099,1000.23 355.5,1000.5C 352.061,998.796 348.395,997.462 344.5,996.5C 343.791,995.596 342.791,995.263 341.5,995.5C 338.061,993.796 334.395,992.462 330.5,991.5C 329.329,990.655 327.995,989.989 326.5,989.5C 322.833,988.167 319.167,986.833 315.5,985.5C 314.791,984.596 313.791,984.263 312.5,984.5C 309.021,982.597 305.354,980.93 301.5,979.5C 300.791,978.596 299.791,978.263 298.5,978.5C 295.485,976.326 292.151,974.659 288.5,973.5C 287.486,972.326 286.153,971.66 284.5,971.5C 281.485,969.326 278.151,967.659 274.5,966.5C 273.71,965.599 272.71,964.932 271.5,964.5C 268.14,962.82 264.807,961.153 261.5,959.5C 260.71,958.599 259.71,957.932 258.5,957.5C 255.661,955.58 252.661,953.913 249.5,952.5C 248.486,951.326 247.153,950.66 245.5,950.5C 243.054,947.769 240.054,945.769 236.5,944.5C 235.71,943.599 234.71,942.932 233.5,942.5C 230.709,940.265 227.709,938.265 224.5,936.5C 223.71,935.599 222.71,934.932 221.5,934.5C 218.68,932.255 215.68,930.255 212.5,928.5C 212.027,927.094 211.027,926.427 209.5,926.5C 207.2,924.016 204.533,922.016 201.5,920.5C 200.833,919.167 199.833,918.167 198.5,917.5C 196.116,915.115 193.45,913.115 190.5,911.5C 190.027,910.094 189.027,909.427 187.5,909.5C 185.451,906.45 182.784,904.117 179.5,902.5C 178.833,901.167 177.833,900.167 176.5,899.5C 173.833,897.167 171.167,894.833 168.5,892.5C 167.71,891.599 166.71,890.932 165.5,890.5C 163.5,887.833 161.167,885.5 158.5,883.5C 157.833,882.167 156.833,881.167 155.5,880.5C 153.5,877.833 151.167,875.5 148.5,873.5C 147.833,872.167 146.833,871.167 145.5,870.5C 143.5,867.833 141.167,865.5 138.5,863.5C 137.833,862.167 136.833,861.167 135.5,860.5C 133.157,857.793 130.823,855.126 128.5,852.5C 128.167,851.5 127.5,850.833 126.5,850.5C 124.628,847.418 122.295,844.751 119.5,842.5C 119.068,841.29 118.401,840.29 117.5,839.5C 115.157,836.793 112.823,834.126 110.5,831.5C 110.068,830.29 109.401,829.29 108.5,828.5C 106.397,825.28 104.064,822.28 101.5,819.5C 101.167,818.5 100.5,817.833 99.5,817.5C 97.7583,814.357 95.7583,811.357 93.5,808.5C 92.8333,807.5 92.1667,806.5 91.5,805.5C 89.5,802.5 87.5,799.5 85.5,796.5C 84.8333,795.5 84.1667,794.5 83.5,793.5C 81.5,790.5 79.5,787.5 77.5,784.5C 77.0679,783.29 76.4013,782.29 75.5,781.5C 73.7349,778.291 71.7349,775.291 69.5,772.5C 69.3404,770.847 68.6737,769.514 67.5,768.5C 66.0834,765.331 64.4168,762.331 62.5,759.5C 62.573,757.973 61.9063,756.973 60.5,756.5C 59.3411,752.849 57.6744,749.515 55.5,746.5C 55.3404,744.847 54.6737,743.514 53.5,742.5C 52.1667,739.167 50.8333,735.833 49.5,732.5C 135.473,645.86 221.806,559.527 308.5,473.5 Z"/></g>
<g><path style="opacity:1" fill="#fdf0ac" d="M 499.5,477.5 C 530.911,475.104 551.411,488.771 561,518.5C 564.187,546.644 553.02,566.478 527.5,578C 492.753,586.049 469.92,573.216 459,539.5C 455.722,507.693 469.222,487.027 499.5,477.5 Z"/></g>
<g><path style="opacity:1" fill="#fdefe3" d="M 320.5,448.5 C 334.833,448.5 349.167,448.5 363.5,448.5C 363.832,501.336 363.499,554.003 362.5,606.5C 344.774,562.049 326.774,517.716 308.5,473.5C 303.666,460.837 307.666,452.503 320.5,448.5 Z"/></g>
<g><path style="opacity:1" fill="#47515e" d="M 444.5,392.5 C 450.194,400.194 456.861,406.861 464.5,412.5C 476.091,424.426 487.757,436.426 499.5,448.5C 463.819,455.017 440.985,475.683 431,510.5C 424.7,546.197 435.867,574.863 464.5,596.5C 476.118,608.453 487.785,620.453 499.5,632.5C 463.843,639.067 441.01,659.734 431,694.5C 424.781,731.7 436.948,761.034 467.5,782.5C 467.062,782.435 466.728,782.601 466.5,783C 489.368,805.701 512.035,828.535 534.5,851.5C 532.167,851.5 529.833,851.5 527.5,851.5C 516.833,851.5 506.167,851.5 495.5,851.5C 464.498,851.667 433.498,851.5 402.5,851C 397.962,849.988 393.629,848.488 389.5,846.5C 369.356,834.201 361.023,816.201 364.5,792.5C 364.5,739.167 364.5,685.833 364.5,632.5C 364.5,624.5 364.5,616.5 364.5,608.5C 364.5,562.5 364.5,516.5 364.5,470.5C 390.632,444.868 416.632,419.035 442.5,393C 443.094,392.536 443.761,392.369 444.5,392.5 Z"/></g>
<g><path style="opacity:1" fill="#d9cfc8" d="M 363.5,448.5 C 363.833,448.5 364.167,448.5 364.5,448.5C 364.5,455.833 364.5,463.167 364.5,470.5C 364.5,516.5 364.5,562.5 364.5,608.5C 364.167,608.5 363.833,608.5 363.5,608.5C 363.167,607.833 362.833,607.167 362.5,606.5C 363.499,554.003 363.832,501.336 363.5,448.5 Z"/></g>
<g><path style="opacity:1" fill="#d1301c" d="M 921.5,480.5 C 954.167,512.167 986.833,543.833 1019.5,575.5C 1019.5,575.833 1019.5,576.167 1019.5,576.5C 1019.5,578.167 1019.5,579.833 1019.5,581.5C 1019.67,582.492 1019.34,583.158 1018.5,583.5C 873.167,728.167 728.167,873.167 583.5,1018.5C 583.158,1019.34 582.492,1019.67 581.5,1019.5C 579.379,1019.33 577.379,1019.66 575.5,1020.5C 572.833,1020.5 570.167,1020.5 567.5,1020.5C 565.801,1020.66 564.134,1020.49 562.5,1020C 550.965,1008.3 539.298,996.798 527.5,985.5C 527.5,951.833 527.5,918.167 527.5,884.5C 527.5,873.5 527.5,862.5 527.5,851.5C 529.833,851.5 532.167,851.5 534.5,851.5C 562.502,851.667 590.502,851.5 618.5,851C 621.893,850.202 625.226,849.202 628.5,848C 650.122,835.925 659.455,817.425 656.5,792.5C 668.148,764.571 679.815,736.571 691.5,708.5C 692.239,708.631 692.906,708.464 693.5,708C 769.368,631.965 845.368,556.132 921.5,480.5 Z"/></g>
<g><path style="opacity:0.021" fill="#43443f" d="M 1022.5,553.5 C 1022.83,553.5 1023.17,553.5 1023.5,553.5C 1023.5,555.167 1023.5,556.833 1023.5,558.5C 1022.83,558.833 1022.17,559.167 1021.5,559.5C 1021.83,557.5 1022.17,555.5 1022.5,553.5 Z"/></g>
<g><path style="opacity:0.021" fill="#43443f" d="M -0.5,556.5 C -0.166667,556.5 0.166667,556.5 0.5,556.5C 1.43448,557.568 1.76781,558.901 1.5,560.5C 0.833333,560.833 0.166667,561.167 -0.5,561.5C -0.5,559.833 -0.5,558.167 -0.5,556.5 Z"/></g>
<g><path style="opacity:0.02" fill="#43443f" d="M 1023.5,573.5 C 1023.5,575.167 1023.5,576.833 1023.5,578.5C 1022.17,579.5 1020.83,580.5 1019.5,581.5C 1019.5,579.833 1019.5,578.167 1019.5,576.5C 1020.17,576.5 1020.5,576.167 1020.5,575.5C 1021.5,574.833 1022.5,574.167 1023.5,573.5 Z"/></g>
<g><path style="opacity:0.02" fill="#45433f" d="M 2.5,574.5 C 3.10978,575.391 3.44312,576.391 3.5,577.5C 3.5,577.833 3.5,578.167 3.5,578.5C 2.16667,579.5 0.833333,580.5 -0.5,581.5C -0.5,579.833 -0.5,578.167 -0.5,576.5C 0.5,575.833 1.5,575.167 2.5,574.5 Z"/></g>
<g><path style="opacity:0.02" fill="#43443f" d="M 5.5,591.5 C 5.5,593.167 5.5,594.833 5.5,596.5C 3.5,598.167 1.5,599.833 -0.5,601.5C -0.5,599.833 -0.5,598.167 -0.5,596.5C 1.5,594.833 3.5,593.167 5.5,591.5 Z"/></g>
<g><path style="opacity:0.02" fill="#43443f" d="M 1023.5,593.5 C 1023.5,595.167 1023.5,596.833 1023.5,598.5C 1020.83,600.833 1018.17,603.167 1015.5,605.5C 1015.83,603.5 1016.17,601.5 1016.5,599.5C 1018.83,597.5 1021.17,595.5 1023.5,593.5 Z"/></g>
<g><path style="opacity:0.02" fill="#43443f" d="M 8.5,608.5 C 8.5,609.833 8.5,611.167 8.5,612.5C 5.83333,615.833 2.83333,618.833 -0.5,621.5C -0.5,619.833 -0.5,618.167 -0.5,616.5C 2.5,613.833 5.5,611.167 8.5,608.5 Z"/></g>
<g><path style="opacity:1" fill="#d1301c" d="M 1018.5,583.5 C 1018.27,588.894 1017.6,594.227 1016.5,599.5C 1016.17,601.5 1015.83,603.5 1015.5,605.5C 1014.17,611.833 1012.83,618.167 1011.5,624.5C 1010.85,626.435 1010.52,628.435 1010.5,630.5C 1008.52,637.073 1006.86,643.74 1005.5,650.5C 1004.83,650.5 1004.5,650.833 1004.5,651.5C 1003.85,653.435 1003.52,655.435 1003.5,657.5C 1000.77,664.684 998.439,672.018 996.5,679.5C 995.833,679.5 995.5,679.833 995.5,680.5C 994.434,682.701 993.767,685.035 993.5,687.5C 989.893,695.716 986.559,704.05 983.5,712.5C 982.833,712.5 982.5,712.833 982.5,713.5C 981.5,716.167 980.5,718.833 979.5,721.5C 974.563,731.04 969.897,740.707 965.5,750.5C 964.833,750.5 964.5,750.833 964.5,751.5C 962.82,754.86 961.153,758.193 959.5,761.5C 951.473,774.517 943.473,787.517 935.5,800.5C 934.833,800.5 934.5,800.833 934.5,801.5C 933.833,801.5 933.5,801.833 933.5,802.5C 929.908,807.357 926.575,812.357 923.5,817.5C 892.833,857.5 857.5,892.833 817.5,923.5C 812.357,926.575 807.357,929.908 802.5,933.5C 801.833,933.5 801.5,933.833 801.5,934.5C 800.833,934.5 800.5,934.833 800.5,935.5C 787.695,943.74 774.695,951.74 761.5,959.5C 758.183,961.137 754.85,962.804 751.5,964.5C 750.833,964.5 750.5,964.833 750.5,965.5C 740.707,969.897 731.04,974.563 721.5,979.5C 718.833,980.5 716.167,981.5 713.5,982.5C 712.833,982.5 712.5,982.833 712.5,983.5C 704.05,986.559 695.716,989.893 687.5,993.5C 685.035,993.767 682.701,994.434 680.5,995.5C 679.833,995.5 679.5,995.833 679.5,996.5C 672.018,998.439 664.684,1000.77 657.5,1003.5C 655.435,1003.52 653.435,1003.85 651.5,1004.5C 650.833,1004.5 650.5,1004.83 650.5,1005.5C 643.74,1006.86 637.073,1008.52 630.5,1010.5C 628.435,1010.52 626.435,1010.85 624.5,1011.5C 618.167,1012.83 611.833,1014.17 605.5,1015.5C 603.5,1015.83 601.5,1016.17 599.5,1016.5C 594.227,1017.6 588.894,1018.27 583.5,1018.5C 728.167,873.167 873.167,728.167 1018.5,583.5 Z"/></g>
<g><path style="opacity:0.02" fill="#43443f" d="M 1023.5,613.5 C 1023.5,615.167 1023.5,616.833 1023.5,618.5C 1019.17,622.5 1014.83,626.5 1010.5,630.5C 1010.52,628.435 1010.85,626.435 1011.5,624.5C 1015.5,620.833 1019.5,617.167 1023.5,613.5 Z"/></g>
<g><path style="opacity:0.02" fill="#44433f" d="M 11.5,625.5 C 12.2341,626.708 12.5674,628.041 12.5,629.5C 8.16667,633.5 3.83333,637.5 -0.5,641.5C -0.5,639.833 -0.5,638.167 -0.5,636.5C 3.5,632.833 7.5,629.167 11.5,625.5 Z"/></g>
<g><path style="opacity:1" fill="#ec664f" d="M 363.5,608.5 C 363.833,608.5 364.167,608.5 364.5,608.5C 364.5,616.5 364.5,624.5 364.5,632.5C 364.167,632.5 363.833,632.5 363.5,632.5C 349.167,632.5 334.833,632.5 320.5,632.5C 334.657,631.504 348.99,631.171 363.5,631.5C 363.5,623.833 363.5,616.167 363.5,608.5 Z"/></g>
<g><path style="opacity:0.02" fill="#43443f" d="M 1023.5,633.5 C 1023.5,635.167 1023.5,636.833 1023.5,638.5C 1016.83,644.833 1010.17,651.167 1003.5,657.5C 1003.52,655.435 1003.85,653.435 1004.5,651.5C 1005.17,651.5 1005.5,651.167 1005.5,650.5C 1011.5,644.833 1017.5,639.167 1023.5,633.5 Z"/></g>
<g><path style="opacity:1" fill="#fdefe3" d="M 320.5,632.5 C 334.833,632.5 349.167,632.5 363.5,632.5C 363.832,685.336 363.499,738.003 362.5,790.5C 344.104,744.817 325.604,699.151 307,653.5C 304.964,642.228 309.464,635.228 320.5,632.5 Z"/></g>
<g><path style="opacity:0.02" fill="#44443f" d="M 15.5,641.5 C 16.2341,642.708 16.5674,644.041 16.5,645.5C 10.8333,650.833 5.16667,656.167 -0.5,661.5C -0.5,659.833 -0.5,658.167 -0.5,656.5C 4.83333,651.5 10.1667,646.5 15.5,641.5 Z"/></g>
<g><path style="opacity:0.02" fill="#44433f" d="M 1023.5,653.5 C 1023.5,655.167 1023.5,656.833 1023.5,658.5C 1013.5,668.167 1003.5,677.833 993.5,687.5C 993.767,685.035 994.434,682.701 995.5,680.5C 996.167,680.5 996.5,680.167 996.5,679.5C 1005.5,670.833 1014.5,662.167 1023.5,653.5 Z"/></g>
<g><path style="opacity:0.02" fill="#43443f" d="M 19.5,657.5 C 20.404,658.209 20.7373,659.209 20.5,660.5C 13.8333,667.833 6.83333,674.833 -0.5,681.5C -0.5,679.833 -0.5,678.167 -0.5,676.5C 6.16667,670.167 12.8333,663.833 19.5,657.5 Z"/></g>
<g><path style="opacity:0.02" fill="#43443f" d="M 24.5,672.5 C 25.2341,673.708 25.5674,675.041 25.5,676.5C 16.8333,684.833 8.16667,693.167 -0.5,701.5C -0.5,699.833 -0.5,698.167 -0.5,696.5C 7.83333,688.5 16.1667,680.5 24.5,672.5 Z"/></g>
<g><path style="opacity:0.02" fill="#43443f" d="M 1023.5,673.5 C 1023.5,675.167 1023.5,676.833 1023.5,678.5C 1008.83,692.833 994.167,707.167 979.5,721.5C 980.5,718.833 981.5,716.167 982.5,713.5C 983.167,713.5 983.5,713.167 983.5,712.5C 996.833,699.5 1010.17,686.5 1023.5,673.5 Z"/></g>
<g><path style="opacity:1" fill="#fdefe3" d="M 656.5,632.5 C 671.837,632.333 687.17,632.5 702.5,633C 710.827,636.335 714.66,642.502 714,651.5C 706.487,670.521 698.987,689.521 691.5,708.5C 679.815,736.571 668.148,764.571 656.5,792.5C 656.5,739.167 656.5,685.833 656.5,632.5 Z"/></g>
<g><path style="opacity:0.02" fill="#43443f" d="M 29.5,687.5 C 30.404,688.209 30.7373,689.209 30.5,690.5C 20.5,701.167 10.1667,711.5 -0.5,721.5C -0.5,719.833 -0.5,718.167 -0.5,716.5C 9.5,706.833 19.5,697.167 29.5,687.5 Z"/></g>
<g><path style="opacity:0.02" fill="#43443f" d="M 1023.5,693.5 C 1023.5,695.167 1023.5,696.833 1023.5,698.5C 1002.17,719.5 980.833,740.5 959.5,761.5C 961.153,758.193 962.82,754.86 964.5,751.5C 965.167,751.5 965.5,751.167 965.5,750.5C 984.833,731.5 1004.17,712.5 1023.5,693.5 Z"/></g>
<g><path style="opacity:1" fill="#d9cfc8" d="M 363.5,632.5 C 363.833,632.5 364.167,632.5 364.5,632.5C 364.5,685.833 364.5,739.167 364.5,792.5C 363.5,792.167 362.833,791.5 362.5,790.5C 363.499,738.003 363.832,685.336 363.5,632.5 Z"/></g>
<g><path style="opacity:0.02" fill="#43443f" d="M 35.5,701.5 C 35.8333,702.833 36.1667,704.167 36.5,705.5C 24.1667,717.5 11.8333,729.5 -0.5,741.5C -0.5,739.833 -0.5,738.167 -0.5,736.5C 11.5,724.833 23.5,713.167 35.5,701.5 Z"/></g>
<g><path style="opacity:0.02" fill="#44433f" d="M 1023.5,713.5 C 1023.5,715.167 1023.5,716.833 1023.5,718.5C 990.167,751.5 956.833,784.5 923.5,817.5C 926.575,812.357 929.908,807.357 933.5,802.5C 934.167,802.5 934.5,802.167 934.5,801.5C 935.167,801.5 935.5,801.167 935.5,800.5C 964.833,771.5 994.167,742.5 1023.5,713.5 Z"/></g>
<g><path style="opacity:0.02" fill="#43443f" d="M 40.5,715.5 C 41.6737,716.514 42.3404,717.847 42.5,719.5C 28.1667,733.5 13.8333,747.5 -0.5,761.5C -0.5,759.833 -0.5,758.167 -0.5,756.5C 13.5,743.167 27.1667,729.5 40.5,715.5 Z"/></g>
<g><path style="opacity:0.02" fill="#43443f" d="M 47.5,729.5 C 48.1098,730.391 48.4431,731.391 48.5,732.5C 32.5,749.167 16.1667,765.5 -0.5,781.5C -0.5,779.833 -0.5,778.167 -0.5,776.5C 15.5,760.833 31.5,745.167 47.5,729.5 Z"/></g>
<g><path style="opacity:0.02" fill="#43443f" d="M 1023.5,733.5 C 1023.5,735.167 1023.5,736.833 1023.5,738.5C 928.167,833.167 833.167,928.167 738.5,1023.5C 736.833,1023.5 735.167,1023.5 733.5,1023.5C 829.833,926.5 926.5,829.833 1023.5,733.5 Z"/></g>
<g><path style="opacity:1" fill="#8bbf5d" d="M 499.5,632.5 C 534.413,630.04 561.247,643.374 580,672.5C 596.722,706.329 593.389,737.996 570,767.5C 539.4,796.602 505.233,801.602 467.5,782.5C 436.948,761.034 424.781,731.7 431,694.5C 441.01,659.734 463.843,639.067 499.5,632.5 Z"/></g>
<g><path style="opacity:1" fill="#cbd75c" d="M 502.5,659.5 C 535.184,658.573 555.35,673.906 563,705.5C 564.451,738.789 548.951,758.956 516.5,766C 489.994,767.836 471.16,756.669 460,732.5C 451.207,700.927 461.373,677.76 490.5,663C 494.543,661.509 498.543,660.342 502.5,659.5 Z"/></g>
<g><path style="opacity:0.02" fill="#43443f" d="M 53.5,742.5 C 54.6737,743.514 55.3404,744.847 55.5,746.5C 36.8333,764.833 18.1667,783.167 -0.5,801.5C -0.5,799.833 -0.5,798.167 -0.5,796.5C 17.8333,778.833 35.8333,760.833 53.5,742.5 Z"/></g>
<g><path style="opacity:0.02" fill="#43443f" d="M 1023.5,753.5 C 1023.5,755.167 1023.5,756.833 1023.5,758.5C 934.833,846.5 846.5,934.833 758.5,1023.5C 756.833,1023.5 755.167,1023.5 753.5,1023.5C 843.167,933.167 933.167,843.167 1023.5,753.5 Z"/></g>
<g><path style="opacity:0.02" fill="#444440" d="M 60.5,756.5 C 61.9063,756.973 62.573,757.973 62.5,759.5C 41.5,780.167 20.5,800.833 -0.5,821.5C -0.5,819.833 -0.5,818.167 -0.5,816.5C 19.8333,796.5 40.1667,776.5 60.5,756.5 Z"/></g>
<g><path style="opacity:0.02" fill="#43443f" d="M 67.5,768.5 C 68.6737,769.514 69.3404,770.847 69.5,772.5C 46.1667,795.5 22.8333,818.5 -0.5,841.5C -0.5,839.833 -0.5,838.167 -0.5,836.5C 22.5,814.167 45.1667,791.5 67.5,768.5 Z"/></g>
<g><path style="opacity:0.02" fill="#43443f" d="M 1023.5,773.5 C 1023.5,775.167 1023.5,776.833 1023.5,778.5C 941.5,859.833 859.833,941.5 778.5,1023.5C 776.833,1023.5 775.167,1023.5 773.5,1023.5C 856.5,939.833 939.833,856.5 1023.5,773.5 Z"/></g>
<g><path style="opacity:0.02" fill="#44433f" d="M 75.5,781.5 C 76.4013,782.29 77.0679,783.29 77.5,784.5C 51.5,810.167 25.5,835.833 -0.5,861.5C -0.5,859.833 -0.5,858.167 -0.5,856.5C 24.8333,831.5 50.1667,806.5 75.5,781.5 Z"/></g>
<g><path style="opacity:0.02" fill="#43443f" d="M 83.5,793.5 C 84.1667,794.5 84.8333,795.5 85.5,796.5C 56.8333,824.833 28.1667,853.167 -0.5,881.5C -0.5,879.833 -0.5,878.167 -0.5,876.5C 27.5,848.833 55.5,821.167 83.5,793.5 Z"/></g>
<g><path style="opacity:0.02" fill="#43443f" d="M 1023.5,793.5 C 1023.5,795.167 1023.5,796.833 1023.5,798.5C 948.167,873.167 873.167,948.167 798.5,1023.5C 796.833,1023.5 795.167,1023.5 793.5,1023.5C 869.833,946.5 946.5,869.833 1023.5,793.5 Z"/></g>
<g><path style="opacity:0.02" fill="#43443f" d="M 91.5,805.5 C 92.1667,806.5 92.8333,807.5 93.5,808.5C 62.1667,839.5 30.8333,870.5 -0.5,901.5C -0.5,899.833 -0.5,898.167 -0.5,896.5C 30.1667,866.167 60.8333,835.833 91.5,805.5 Z"/></g>
<g><path style="opacity:0.02" fill="#43443f" d="M 1023.5,813.5 C 1023.5,815.167 1023.5,816.833 1023.5,818.5C 954.833,886.5 886.5,954.833 818.5,1023.5C 816.833,1023.5 815.167,1023.5 813.5,1023.5C 883.167,953.167 953.167,883.167 1023.5,813.5 Z"/></g>
<g><path style="opacity:0.02" fill="#43443f" d="M 99.5,817.5 C 100.5,817.833 101.167,818.5 101.5,819.5C 67.8333,853.833 33.8333,887.833 -0.5,921.5C -0.5,919.833 -0.5,918.167 -0.5,916.5C 32.8333,883.5 66.1667,850.5 99.5,817.5 Z"/></g>
<g><path style="opacity:0.02" fill="#44433f" d="M 108.5,828.5 C 109.401,829.29 110.068,830.29 110.5,831.5C 73.5,868.167 36.5,904.833 -0.5,941.5C -0.5,939.833 -0.5,938.167 -0.5,936.5C 35.8333,900.5 72.1667,864.5 108.5,828.5 Z"/></g>
<g><path style="opacity:0.02" fill="#43443f" d="M 1023.5,833.5 C 1023.5,835.167 1023.5,836.833 1023.5,838.5C 961.5,899.833 899.833,961.5 838.5,1023.5C 836.833,1023.5 835.167,1023.5 833.5,1023.5C 896.5,959.833 959.833,896.5 1023.5,833.5 Z"/></g>
<g><path style="opacity:0.02" fill="#44443f" d="M 117.5,839.5 C 118.401,840.29 119.068,841.29 119.5,842.5C 79.5,882.167 39.5,921.833 -0.5,961.5C -0.5,959.833 -0.5,958.167 -0.5,956.5C 38.8333,917.5 78.1667,878.5 117.5,839.5 Z"/></g>
<g><path style="opacity:0.02" fill="#43443f" d="M 126.5,850.5 C 127.5,850.833 128.167,851.5 128.5,852.5C 85.8333,895.833 42.8333,938.833 -0.5,981.5C -0.5,979.833 -0.5,978.167 -0.5,976.5C 41.8333,934.5 84.1667,892.5 126.5,850.5 Z"/></g>
<g><path style="opacity:1" fill="#d1301c" d="M 389.5,846.5 C 393.629,848.488 397.962,849.988 402.5,851C 433.498,851.5 464.498,851.667 495.5,851.5C 495.5,851.833 495.5,852.167 495.5,852.5C 495.5,885.833 495.5,919.167 495.5,952.5C 459.785,917.452 424.452,882.119 389.5,846.5 Z"/></g>
<g><path style="opacity:0.02" fill="#43443f" d="M 1023.5,853.5 C 1023.5,855.167 1023.5,856.833 1023.5,858.5C 968.167,913.167 913.167,968.167 858.5,1023.5C 856.833,1023.5 855.167,1023.5 853.5,1023.5C 909.833,966.5 966.5,909.833 1023.5,853.5 Z"/></g>
<g><path style="opacity:1" fill="#c2b6b2" d="M 495.5,852.5 C 495.5,852.167 495.5,851.833 495.5,851.5C 506.167,851.5 516.833,851.5 527.5,851.5C 527.5,862.5 527.5,873.5 527.5,884.5C 517.194,873.527 506.527,862.86 495.5,852.5 Z"/></g>
<g><path style="opacity:0.02" fill="#43443f" d="M 135.5,860.5 C 136.833,861.167 137.833,862.167 138.5,863.5C 92.1667,909.5 45.8333,955.5 -0.5,1001.5C -0.5,999.833 -0.5,998.167 -0.5,996.5C 45.1667,951.5 90.5,906.167 135.5,860.5 Z"/></g>
<g><path style="opacity:0.02" fill="#43443f" d="M 145.5,870.5 C 146.833,871.167 147.833,872.167 148.5,873.5C 98.8333,922.833 49.1667,972.167 -0.5,1021.5C -0.5,1019.83 -0.5,1018.17 -0.5,1016.5C 48.5,968.167 97.1667,919.5 145.5,870.5 Z"/></g>
<g><path style="opacity:0.02" fill="#43443f" d="M 1023.5,873.5 C 1023.5,875.167 1023.5,876.833 1023.5,878.5C 974.833,926.5 926.5,974.833 878.5,1023.5C 876.833,1023.5 875.167,1023.5 873.5,1023.5C 923.167,973.167 973.167,923.167 1023.5,873.5 Z"/></g>
<g><path style="opacity:0.02" fill="#43443f" d="M 155.5,880.5 C 156.833,881.167 157.833,882.167 158.5,883.5C 111.5,929.833 64.8333,976.5 18.5,1023.5C 16.8333,1023.5 15.1667,1023.5 13.5,1023.5C 60.8333,975.833 108.167,928.167 155.5,880.5 Z"/></g>
<g><path style="opacity:0.02" fill="#44433f" d="M 165.5,890.5 C 166.71,890.932 167.71,891.599 168.5,892.5C 125.167,936.167 81.8333,979.833 38.5,1023.5C 36.8333,1023.5 35.1667,1023.5 33.5,1023.5C 77.5,979.167 121.5,934.833 165.5,890.5 Z"/></g>
<g><path style="opacity:0.02" fill="#43443f" d="M 1023.5,893.5 C 1023.5,895.167 1023.5,896.833 1023.5,898.5C 981.5,939.833 939.833,981.5 898.5,1023.5C 896.833,1023.5 895.167,1023.5 893.5,1023.5C 936.5,979.833 979.833,936.5 1023.5,893.5 Z"/></g>
<g><path style="opacity:0.02" fill="#43443f" d="M 176.5,899.5 C 177.833,900.167 178.833,901.167 179.5,902.5C 138.833,942.5 98.5,982.833 58.5,1023.5C 56.8333,1023.5 55.1667,1023.5 53.5,1023.5C 94.5,982.167 135.5,940.833 176.5,899.5 Z"/></g>
<g><path style="opacity:0.02" fill="#43443f" d="M 187.5,909.5 C 189.027,909.427 190.027,910.094 190.5,911.5C 152.833,948.5 115.5,985.833 78.5,1023.5C 76.8333,1023.5 75.1667,1023.5 73.5,1023.5C 111.167,985.167 149.167,947.167 187.5,909.5 Z"/></g>
<g><path style="opacity:0.02" fill="#43443f" d="M 1023.5,913.5 C 1023.5,915.167 1023.5,916.833 1023.5,918.5C 988.167,953.167 953.167,988.167 918.5,1023.5C 916.833,1023.5 915.167,1023.5 913.5,1023.5C 949.833,986.5 986.5,949.833 1023.5,913.5 Z"/></g>
<g><path style="opacity:0.02" fill="#43443f" d="M 198.5,917.5 C 199.833,918.167 200.833,919.167 201.5,920.5C 166.833,954.5 132.5,988.833 98.5,1023.5C 96.8333,1023.5 95.1667,1023.5 93.5,1023.5C 128.5,988.167 163.5,952.833 198.5,917.5 Z"/></g>
<g><path style="opacity:0.02" fill="#44433f" d="M 817.5,923.5 C 784.5,956.833 751.5,990.167 718.5,1023.5C 716.833,1023.5 715.167,1023.5 713.5,1023.5C 742.5,994.167 771.5,964.833 800.5,935.5C 801.167,935.5 801.5,935.167 801.5,934.5C 802.167,934.5 802.5,934.167 802.5,933.5C 807.357,929.908 812.357,926.575 817.5,923.5 Z"/></g>
<g><path style="opacity:0.02" fill="#43443f" d="M 209.5,926.5 C 211.027,926.427 212.027,927.094 212.5,928.5C 181.167,960.167 149.833,991.833 118.5,1023.5C 116.833,1023.5 115.167,1023.5 113.5,1023.5C 145.5,991.167 177.5,958.833 209.5,926.5 Z"/></g>
<g><path style="opacity:0.02" fill="#43443f" d="M 1023.5,933.5 C 1023.5,935.167 1023.5,936.833 1023.5,938.5C 994.833,966.5 966.5,994.833 938.5,1023.5C 936.833,1023.5 935.167,1023.5 933.5,1023.5C 963.167,993.167 993.167,963.167 1023.5,933.5 Z"/></g>
<g><path style="opacity:0.02" fill="#43443f" d="M 221.5,934.5 C 222.71,934.932 223.71,935.599 224.5,936.5C 195.833,965.5 167.167,994.5 138.5,1023.5C 136.833,1023.5 135.167,1023.5 133.5,1023.5C 162.833,993.833 192.167,964.167 221.5,934.5 Z"/></g>
<g><path style="opacity:0.02" fill="#43443f" d="M 233.5,942.5 C 234.71,942.932 235.71,943.599 236.5,944.5C 210.5,970.833 184.5,997.167 158.5,1023.5C 156.833,1023.5 155.167,1023.5 153.5,1023.5C 180.167,996.5 206.833,969.5 233.5,942.5 Z"/></g>
<g><path style="opacity:0.02" fill="#43443f" d="M 245.5,950.5 C 247.153,950.66 248.486,951.326 249.5,952.5C 225.5,975.833 201.833,999.5 178.5,1023.5C 176.833,1023.5 175.167,1023.5 173.5,1023.5C 197.5,999.167 221.5,974.833 245.5,950.5 Z"/></g>
<g><path style="opacity:0.02" fill="#43443f" d="M 1023.5,953.5 C 1023.5,955.167 1023.5,956.833 1023.5,958.5C 1001.5,979.833 979.833,1001.5 958.5,1023.5C 956.833,1023.5 955.167,1023.5 953.5,1023.5C 976.5,999.833 999.833,976.5 1023.5,953.5 Z"/></g>
<g><path style="opacity:1" fill="#fdefe3" d="M 495.5,852.5 C 506.527,862.86 517.194,873.527 527.5,884.5C 527.5,918.167 527.5,951.833 527.5,985.5C 527.5,998.167 527.5,1010.83 527.5,1023.5C 516.833,1023.5 506.167,1023.5 495.5,1023.5C 495.5,999.833 495.5,976.167 495.5,952.5C 495.5,919.167 495.5,885.833 495.5,852.5 Z"/></g>
<g><path style="opacity:0.02" fill="#43443f" d="M 258.5,957.5 C 259.71,957.932 260.71,958.599 261.5,959.5C 240.5,980.833 219.5,1002.17 198.5,1023.5C 196.833,1023.5 195.167,1023.5 193.5,1023.5C 215.167,1001.5 236.833,979.5 258.5,957.5 Z"/></g>
<g><path style="opacity:0.02" fill="#44443f" d="M 761.5,959.5 C 740.5,980.833 719.5,1002.17 698.5,1023.5C 696.833,1023.5 695.167,1023.5 693.5,1023.5C 712.5,1004.17 731.5,984.833 750.5,965.5C 751.167,965.5 751.5,965.167 751.5,964.5C 754.85,962.804 758.183,961.137 761.5,959.5 Z"/></g>
<g><path style="opacity:0.02" fill="#43443f" d="M 271.5,964.5 C 272.71,964.932 273.71,965.599 274.5,966.5C 255.833,985.5 237.167,1004.5 218.5,1023.5C 216.833,1023.5 215.167,1023.5 213.5,1023.5C 232.833,1003.83 252.167,984.167 271.5,964.5 Z"/></g>
<g><path style="opacity:0.02" fill="#43443f" d="M 284.5,971.5 C 286.153,971.66 287.486,972.326 288.5,973.5C 271.5,989.833 254.833,1006.5 238.5,1023.5C 236.833,1023.5 235.167,1023.5 233.5,1023.5C 250.5,1006.17 267.5,988.833 284.5,971.5 Z"/></g>
<g><path style="opacity:0.02" fill="#43443f" d="M 1023.5,973.5 C 1023.5,975.167 1023.5,976.833 1023.5,978.5C 1008.17,993.167 993.167,1008.17 978.5,1023.5C 976.833,1023.5 975.167,1023.5 973.5,1023.5C 989.833,1006.5 1006.5,989.833 1023.5,973.5 Z"/></g>
<g><path style="opacity:0.02" fill="#44433f" d="M 298.5,978.5 C 299.791,978.263 300.791,978.596 301.5,979.5C 287.167,994.167 272.833,1008.83 258.5,1023.5C 256.833,1023.5 255.167,1023.5 253.5,1023.5C 268.167,1008.17 283.167,993.167 298.5,978.5 Z"/></g>
<g><path style="opacity:0.02" fill="#43443f" d="M 721.5,979.5 C 707.167,994.167 692.833,1008.83 678.5,1023.5C 676.833,1023.5 675.167,1023.5 673.5,1023.5C 686.5,1010.17 699.5,996.833 712.5,983.5C 713.167,983.5 713.5,983.167 713.5,982.5C 716.167,981.5 718.833,980.5 721.5,979.5 Z"/></g>
<g><path style="opacity:0.02" fill="#44443f" d="M 312.5,984.5 C 313.791,984.263 314.791,984.596 315.5,985.5C 303.167,998.167 290.833,1010.83 278.5,1023.5C 276.833,1023.5 275.167,1023.5 273.5,1023.5C 286.167,1010.17 299.167,997.167 312.5,984.5 Z"/></g>
<g><path style="opacity:0.02" fill="#43443f" d="M 326.5,989.5 C 327.995,989.989 329.329,990.655 330.5,991.5C 319.5,1001.83 308.833,1012.5 298.5,1023.5C 296.833,1023.5 295.167,1023.5 293.5,1023.5C 304.5,1012.17 315.5,1000.83 326.5,989.5 Z"/></g>
<g><path style="opacity:0.02" fill="#44433f" d="M 687.5,993.5 C 677.833,1003.5 668.167,1013.5 658.5,1023.5C 656.833,1023.5 655.167,1023.5 653.5,1023.5C 662.167,1014.5 670.833,1005.5 679.5,996.5C 680.167,996.5 680.5,996.167 680.5,995.5C 682.701,994.434 685.035,993.767 687.5,993.5 Z"/></g>
<g><path style="opacity:0.02" fill="#43443f" d="M 1023.5,993.5 C 1023.5,995.167 1023.5,996.833 1023.5,998.5C 1014.83,1006.5 1006.5,1014.83 998.5,1023.5C 996.833,1023.5 995.167,1023.5 993.5,1023.5C 1003.17,1013.17 1013.17,1003.17 1023.5,993.5 Z"/></g>
<g><path style="opacity:0.02" fill="#444440" d="M 341.5,995.5 C 342.791,995.263 343.791,995.596 344.5,996.5C 335.833,1005.5 327.167,1014.5 318.5,1023.5C 316.833,1023.5 315.167,1023.5 313.5,1023.5C 322.5,1013.83 331.833,1004.5 341.5,995.5 Z"/></g>
<g><path style="opacity:0.02" fill="#43443f" d="M 355.5,1000.5 C 357.099,1000.23 358.432,1000.57 359.5,1001.5C 352.5,1008.83 345.5,1016.17 338.5,1023.5C 336.833,1023.5 335.167,1023.5 333.5,1023.5C 340.833,1015.83 348.167,1008.17 355.5,1000.5 Z"/></g>
<g><path style="opacity:0.993" fill="#f34e32" d="M 527.5,985.5 C 539.298,996.798 550.965,1008.3 562.5,1020C 564.134,1020.49 565.801,1020.66 567.5,1020.5C 565.052,1021.47 562.385,1021.81 559.5,1021.5C 557.5,1021.83 555.5,1022.17 553.5,1022.5C 549.629,1022.19 545.962,1022.52 542.5,1023.5C 537.5,1023.5 532.5,1023.5 527.5,1023.5C 527.5,1010.83 527.5,998.167 527.5,985.5 Z"/></g>
<g><path style="opacity:0.02" fill="#43443f" d="M 657.5,1003.5 C 651.167,1010.17 644.833,1016.83 638.5,1023.5C 636.833,1023.5 635.167,1023.5 633.5,1023.5C 639.167,1017.5 644.833,1011.5 650.5,1005.5C 651.167,1005.5 651.5,1005.17 651.5,1004.5C 653.435,1003.85 655.435,1003.52 657.5,1003.5 Z"/></g>
<g><path style="opacity:0.02" fill="#43443f" d="M 371.5,1004.5 C 372.708,1005.23 374.041,1005.57 375.5,1005.5C 369.833,1011.5 364.167,1017.5 358.5,1023.5C 356.833,1023.5 355.167,1023.5 353.5,1023.5C 359.5,1017.17 365.5,1010.83 371.5,1004.5 Z"/></g>
<g><path style="opacity:0.02" fill="#444440" d="M 387.5,1008.5 C 388.995,1008.99 390.329,1009.66 391.5,1010.5C 386.833,1014.5 382.5,1018.83 378.5,1023.5C 376.833,1023.5 375.167,1023.5 373.5,1023.5C 378.167,1018.5 382.833,1013.5 387.5,1008.5 Z"/></g>
<g><path style="opacity:0.02" fill="#44433f" d="M 630.5,1010.5 C 626.5,1014.83 622.5,1019.17 618.5,1023.5C 616.833,1023.5 615.167,1023.5 613.5,1023.5C 617.167,1019.5 620.833,1015.5 624.5,1011.5C 626.435,1010.85 628.435,1010.52 630.5,1010.5 Z"/></g>
<g><path style="opacity:0.02" fill="#43443f" d="M 403.5,1012.5 C 404.833,1012.83 406.167,1013.17 407.5,1013.5C 404.5,1016.83 401.5,1020.17 398.5,1023.5C 396.833,1023.5 395.167,1023.5 393.5,1023.5C 396.833,1019.83 400.167,1016.17 403.5,1012.5 Z"/></g>
<g><path style="opacity:0.02" fill="#43443f" d="M 1023.5,1013.5 C 1023.5,1015.17 1023.5,1016.83 1023.5,1018.5C 1021.5,1019.83 1019.83,1021.5 1018.5,1023.5C 1016.83,1023.5 1015.17,1023.5 1013.5,1023.5C 1016.5,1019.83 1019.83,1016.5 1023.5,1013.5 Z"/></g>
<g><path style="opacity:0.02" fill="#43443f" d="M 605.5,1015.5 C 603.167,1018.17 600.833,1020.83 598.5,1023.5C 596.833,1023.5 595.167,1023.5 593.5,1023.5C 595.5,1021.17 597.5,1018.83 599.5,1016.5C 601.5,1016.17 603.5,1015.83 605.5,1015.5 Z"/></g>
<g><path style="opacity:0.02" fill="#43443f" d="M 420.5,1016.5 C 421.833,1016.5 423.167,1016.5 424.5,1016.5C 422.5,1018.83 420.5,1021.17 418.5,1023.5C 416.833,1023.5 415.167,1023.5 413.5,1023.5C 415.5,1020.83 417.833,1018.5 420.5,1016.5 Z"/></g>
<g><path style="opacity:0.02" fill="#47443f" d="M 437.5,1018.5 C 438.959,1018.43 440.292,1018.77 441.5,1019.5C 440.5,1020.83 439.5,1022.17 438.5,1023.5C 436.833,1023.5 435.167,1023.5 433.5,1023.5C 434.833,1021.83 436.167,1020.17 437.5,1018.5 Z"/></g>
<g><path style="opacity:0.02" fill="#43443f" d="M 581.5,1019.5 C 580.5,1020.83 579.5,1022.17 578.5,1023.5C 576.833,1023.5 575.167,1023.5 573.5,1023.5C 574.167,1022.5 574.833,1021.5 575.5,1020.5C 577.379,1019.66 579.379,1019.33 581.5,1019.5 Z"/></g>
<g><path style="opacity:0.02" fill="#48453e" d="M 455.5,1020.5 C 456.708,1021.23 458.041,1021.57 459.5,1021.5C 459.167,1022.17 458.833,1022.83 458.5,1023.5C 456.833,1023.5 455.167,1023.5 453.5,1023.5C 454.167,1022.5 454.833,1021.5 455.5,1020.5 Z"/></g>
<g><path style="opacity:0.021" fill="#43443f" d="M 559.5,1021.5 C 559.167,1022.17 558.833,1022.83 558.5,1023.5C 556.833,1023.5 555.167,1023.5 553.5,1023.5C 553.5,1023.17 553.5,1022.83 553.5,1022.5C 555.5,1022.17 557.5,1021.83 559.5,1021.5 Z"/></g>
</svg>
